<?xml version="1.0" encoding="UTF-8"?>
<svg version="1.1" xmlns="http://www.w3.org/2000/svg" width="200" height="165">
<path d="M0 0 C6.24876198 7.16321496 5.57859463 15.98768702 5.17919922 25.00488281 C4.27755626 35.0433382 -3.95440152 43.18041395 -10.90625 49.71484375 C-11.43826019 50.2193959 -11.97027039 50.72394806 -12.5184021 51.24378967 C-14.7400193 53.34778357 -16.96209222 55.44865197 -19.2265625 57.5065918 C-25.91583706 63.06264141 -25.91583706 63.06264141 -29.28051758 70.56713867 C-28.74644851 72.87871272 -27.97875431 74.8448214 -27 77 C-25.5046975 91.58405422 -31.56357843 102.69157403 -40.41015625 113.8203125 C-42.7018473 115.52078104 -44.20803841 115.33543845 -47 115 C-48.49804688 113.42700195 -48.49804688 113.42700195 -49.71875 111.23828125 C-50.40517578 110.05395508 -50.40517578 110.05395508 -51.10546875 108.84570312 C-51.56566406 108.00974609 -52.02585938 107.17378906 -52.5 106.3125 C-55.56101 100.88070775 -58.31422924 96.16795914 -63 92 C-63.53625 92.680625 -64.0725 93.36125 -64.625 94.0625 C-67 96 -67 96 -70.25 95.75 C-71.61125 95.37875 -71.61125 95.37875 -73 95 C-73.226875 95.5775 -73.45375 96.155 -73.6875 96.75 C-76.27321295 101.18265077 -80.21190368 103.48070021 -85 105 C-87.77573053 105.21309198 -90.41620242 105.32503981 -93.1875 105.3125 C-93.91130859 105.32861328 -94.63511719 105.34472656 -95.38085938 105.36132812 C-97.48046875 105.36328125 -97.48046875 105.36328125 -101 105 C-104.12562355 100.31156468 -103.45299223 95.49165962 -103 90 C-101.51274714 83.35621351 -97.85412138 78.61141531 -93 74 C-93.33 73.01 -93.66 72.02 -94 71 C-92.66666667 69.33333333 -91.33333333 67.66666667 -90 66 C-91.35748923 61.92753232 -94.0686453 60.76412219 -97.5625 58.625 C-98.19494629 58.22869385 -98.82739258 57.8323877 -99.47900391 57.42407227 C-101.31490514 56.2754005 -103.157031 55.13728337 -105 54 C-106.6253656 52.97974887 -108.25045656 51.95905975 -109.875 50.9375 C-111.421875 49.9784375 -111.421875 49.9784375 -113 49 C-112.68456443 45.81244054 -112.28715672 44.30630051 -110.06640625 41.9375 C-100.71593399 34.70218917 -92.64456066 29.87258573 -80.6875 29.8125 C-78.77517578 29.79123047 -78.77517578 29.79123047 -76.82421875 29.76953125 C-72.934027 30.0039759 -69.71633301 30.87678099 -66 32 C-65.19892822 31.17798096 -64.39785645 30.35596191 -63.57250977 29.5090332 C-60.56931531 26.43289196 -57.55245354 23.37045595 -54.53149414 20.31176758 C-53.23123537 18.99151723 -51.93460397 17.66768342 -50.6418457 16.34008789 C-37.02808115 2.36903426 -20.315364 -10.157682 0 0 Z M-44.9140625 20.42578125 C-46.01967863 21.54074309 -47.12641894 22.65459118 -48.23422241 23.76737976 C-51.12233386 26.67442256 -53.99509939 29.59616721 -56.86474609 32.52142334 C-59.80551766 35.513689 -62.7608072 38.49154255 -65.71484375 41.47070312 C-71.49072784 47.29992964 -77.25045248 53.14479574 -83 59 C-81.46280026 62.26807906 -79.98264138 64.1233581 -77.1875 66.4375 C-74.71565552 68.51905325 -72.35288472 70.59655844 -70.125 72.9375 C-68.25436301 75.23215846 -68.25436301 75.23215846 -66 75 C-65.73445313 75.58265625 -65.46890625 76.1653125 -65.1953125 76.765625 C-63.96697004 79.06174228 -62.59685061 80.80356018 -60.875 82.75 C-59.91666667 83.83333333 -58.95833333 84.91666667 -58 86 C-48.46546994 78.08094965 -39.82840222 69.16741193 -31.03833008 60.44335938 C-28.89042555 58.31329094 -26.73432167 56.19207803 -24.57055664 54.078125 C-21.93593453 51.50403686 -19.31666194 48.91520844 -16.70731163 46.31551361 C-15.71937605 45.33606727 -14.72636502 44.36170982 -13.72797585 43.39292145 C-6.80187826 36.6614176 -1.96930087 30.59617458 -0.5390625 20.86328125 C-0.73794608 13.20832569 -0.73794608 13.20832569 -3 6 C-7.25689171 4.1524341 -11.13558047 3.65123884 -15.75 3.5625 C-16.87921875 3.52253906 -18.0084375 3.48257812 -19.171875 3.44140625 C-30.30783566 5.06634745 -37.41588598 12.73806145 -44.9140625 20.42578125 Z M-103 45 C-103.33 45.66 -103.66 46.32 -104 47 C-102.08702939 48.15199331 -100.16947471 49.29637688 -98.25 50.4375 C-97.18265625 51.07558594 -96.1153125 51.71367188 -95.015625 52.37109375 C-91.65313144 54.25824877 -91.65313144 54.25824877 -88 55 C-85.86412413 53.57411214 -85.86412413 53.57411214 -83.890625 51.4140625 C-83.13652344 50.64835937 -82.38242188 49.88265625 -81.60546875 49.09375 C-80.82816406 48.2790625 -80.05085938 47.464375 -79.25 46.625 C-78.45722656 45.81804688 -77.66445312 45.01109375 -76.84765625 44.1796875 C-73.0880982 41.00711222 -73.0880982 41.00711222 -71 37 C-84.0321087 35.32818389 -92.26158444 37.35100955 -103 45 Z M-84 70 C-84.39618452 73.82425211 -84.39618452 73.82425211 -82.71484375 75.73925781 C-82.12832031 76.30483398 -81.54179688 76.87041016 -80.9375 77.453125 C-80.30585937 78.071875 -79.67421875 78.690625 -79.0234375 79.328125 C-78.35570312 79.96234375 -77.68796875 80.5965625 -77 81.25 C-76.33226562 81.8996875 -75.66453125 82.549375 -74.9765625 83.21875 C-73.32631982 84.82184289 -71.66748209 86.41487834 -70 88 C-69.01 87.01 -68.02 86.02 -67 85 C-73.95687527 76.92828056 -73.95687527 76.92828056 -82 70 C-82.66 70 -83.32 70 -84 70 Z M-36 74 C-41.61 79.61 -47.22 85.22 -53 91 C-51.47489648 94.81275879 -49.99242873 97.86017055 -47.875 101.3125 C-47.33617188 102.19550781 -46.79734375 103.07851562 -46.2421875 103.98828125 C-45.83226563 104.65214844 -45.42234375 105.31601563 -45 106 C-41.2759728 104.7586576 -40.88017352 103.63640943 -38.9375 100.3125 C-38.43089844 99.46300781 -37.92429687 98.61351563 -37.40234375 97.73828125 C-34.72587639 92.51208733 -33.72294355 88.12124977 -33.75 82.25 C-33.74484375 81.12078125 -33.7396875 79.9915625 -33.734375 78.828125 C-33.70931697 75.86542565 -33.70931697 75.86542565 -36 74 Z M-90.5703125 81.4609375 C-91.08335938 82.09257813 -91.59640625 82.72421875 -92.125 83.375 C-92.64320312 84.00148438 -93.16140625 84.62796875 -93.6953125 85.2734375 C-96.02656218 88.35850445 -96.1114203 90.30921692 -96.0625 94.125 C-96.05347656 95.03507812 -96.04445313 95.94515625 -96.03515625 96.8828125 C-96.02355469 97.58148438 -96.01195313 98.28015625 -96 99 C-90.40411686 99.28944223 -86.81330745 99.20887163 -82 96 C-80.15553952 94.08740642 -78.60776754 92.12792763 -77 90 C-77.93590504 88.8944811 -78.87379858 87.79064547 -79.8125 86.6875 C-80.33457031 86.07261719 -80.85664062 85.45773438 -81.39453125 84.82421875 C-82.18923828 83.92123047 -82.18923828 83.92123047 -83 83 C-83.49886719 82.42894531 -83.99773437 81.85789062 -84.51171875 81.26953125 C-86.81660288 79.30342274 -88.38309989 79.42606805 -90.5703125 81.4609375 Z " fill="#000000" transform="translate(153,8)"/>
<path d="M0 0 C2.73514115 2.20145507 3.76424666 3.65496515 4.37109375 7.1171875 C4.59176988 11.08935792 4.10974104 13.73757578 2.5625 17.4375 C-0.94353909 20.94353909 -4.07781631 21.8837933 -9 22 C-12.8044173 21.28438984 -15.34626448 19.73808849 -17.9375 16.8125 C-19.7378303 12.04691979 -19.7378303 7.95308021 -17.9375 3.1875 C-12.75928463 -2.65887219 -6.88270918 -2.88329709 0 0 Z M-12 7 C-12.41666667 10 -12.41666667 10 -12 13 C-9.24301816 15.28138945 -9.24301816 15.28138945 -6.4375 14.8125 C-3.66744883 14.16627558 -3.66744883 14.16627558 -2 11 C-2.35888035 8.03923709 -2.84658021 7.15341979 -5 5 C-8.9674509 4.56530472 -8.9674509 4.56530472 -12 7 Z " fill="#000000" transform="translate(123,38)"/>
<path d="M0 0 C1.65 0 3.3 0 5 0 C5 4.29 5 8.58 5 13 C6.32 12.67 7.64 12.34 9 12 C9 11.38511719 9 10.77023438 9 10.13671875 C9 6.7578125 9 3.37890625 9 0 C10.65 0.33 12.3 0.66 14 1 C14.33 4.96 14.66 8.92 15 13 C15.66 13 16.32 13 17 13 C17 12.31292969 17 11.62585938 17 10.91796875 C17 7.27864583 17 3.63932292 17 0 C32.5 0 32.5 0 38 1 C38.19916016 2.26457031 38.19916016 2.26457031 38.40234375 3.5546875 C38.57894531 4.65039062 38.75554687 5.74609375 38.9375 6.875 C39.11152344 7.96554688 39.28554687 9.05609375 39.46484375 10.1796875 C39.85551159 12.93821546 39.85551159 12.93821546 41 15 C38.36 15 35.72 15 33 15 C33.33 14.34 33.66 13.68 34 13 C34.22622081 11.29636178 34.40888473 9.58671299 34.5625 7.875 C34.64628906 6.96492187 34.73007813 6.05484375 34.81640625 5.1171875 C34.90728516 4.06917969 34.90728516 4.06917969 35 3 C33.68 3 32.36 3 31 3 C30.67 6.3 30.34 9.6 30 13 C30.66 13 31.32 13 32 13 C32 13.66 32 14.32 32 15 C29.69 15 27.38 15 25 15 C25 14.34 25 13.68 25 13 C25.66 13 26.32 13 27 13 C26.67 10.03 26.34 7.06 26 4 C24.68 4.33 23.36 4.66 22 5 C21.67 7.64 21.34 10.28 21 13 C21.99 13.33 22.98 13.66 24 14 C24 14.33 24 14.66 24 15 C21.45873828 15.19617816 18.91739541 15.38217248 16.375 15.5625 C15.66214844 15.61857422 14.94929688 15.67464844 14.21484375 15.73242188 C9.96331896 16.02495798 6.20543653 15.89547939 2 15 C2 11.04 2 7.08 2 3 C1.01 2.67 0.02 2.34 -1 2 C-0.67 1.34 -0.34 0.68 0 0 Z " fill="#000000" transform="translate(49,144)"/>
<path d="M0 0 C2.10353495 -0.0810206 4.20795952 -0.13919907 6.3125 -0.1875 C7.48425781 -0.22230469 8.65601562 -0.25710937 9.86328125 -0.29296875 C13 0 13 0 14.8984375 1.328125 C16.60713853 3.92147267 16.30909782 5.97084139 16 9 C15 11.375 15 11.375 14 13 C14.639375 13.94875 15.27875 14.8975 15.9375 15.875 C18 19 18 19 19 21 C17.02 21 15.04 21 13 21 C12.74605469 20.43410156 12.49210937 19.86820313 12.23046875 19.28515625 C11.88628906 18.55167969 11.54210937 17.81820312 11.1875 17.0625 C10.85105469 16.33160156 10.51460937 15.60070312 10.16796875 14.84765625 C9.06399866 12.66970511 9.06399866 12.66970511 6 12 C6 14.31 6 16.62 6 19 C6.99 19.33 7.98 19.66 9 20 C9 20.33 9 20.66 9 21 C6.03 21 3.06 21 0 21 C0.33 20.34 0.66 19.68 1 19 C1.66 19 2.32 19 3 19 C3 13.39 3 7.78 3 2 C2.01 1.67 1.02 1.34 0 1 C0 0.67 0 0.34 0 0 Z M6 2 C6 4.64 6 7.28 6 10 C9.29075996 9.62095792 9.29075996 9.62095792 12 8 C12.16666667 5.5 12.16666667 5.5 12 3 C10.93354885 1.70366379 10.93354885 1.70366379 8.4375 1.9375 C7.633125 1.958125 6.82875 1.97875 6 2 Z " fill="#000000" transform="translate(110,138)"/>
<path d="M0 0 C2.10353495 -0.0810206 4.20795952 -0.13919907 6.3125 -0.1875 C7.48425781 -0.22230469 8.65601563 -0.25710937 9.86328125 -0.29296875 C13 0 13 0 14.8984375 1.328125 C16.60713853 3.92147267 16.30909782 5.97084139 16 9 C15 11.375 15 11.375 14 13 C14.639375 13.94875 15.27875 14.8975 15.9375 15.875 C18 19 18 19 19 21 C17.02 21 15.04 21 13 21 C12.74605469 20.43410156 12.49210937 19.86820313 12.23046875 19.28515625 C11.88628906 18.55167969 11.54210938 17.81820312 11.1875 17.0625 C10.85105469 16.33160156 10.51460937 15.60070312 10.16796875 14.84765625 C9.06399866 12.66970511 9.06399866 12.66970511 6 12 C6 14.31 6 16.62 6 19 C6.99 19.33 7.98 19.66 9 20 C9 20.33 9 20.66 9 21 C6.03 21 3.06 21 0 21 C0.33 20.34 0.66 19.68 1 19 C1.66 19 2.32 19 3 19 C3 13.39 3 7.78 3 2 C2.01 1.67 1.02 1.34 0 1 C0 0.67 0 0.34 0 0 Z M6 2 C6 4.64 6 7.28 6 10 C9.29075996 9.62095792 9.29075996 9.62095792 12 8 C12.16666667 5.5 12.16666667 5.5 12 3 C10.93354885 1.70366379 10.93354885 1.70366379 8.4375 1.9375 C7.633125 1.958125 6.82875 1.97875 6 2 Z " fill="#000000" transform="translate(5,138)"/>
<path d="M0 0 C0.33 3.96 0.66 7.92 1 12 C1.66 11.67 2.32 11.34 3 11 C3 10.01 3 9.02 3 8 C5.31 8 7.62 8 10 8 C8.35 9.65 6.7 11.3 5 13 C6.31224548 16.93673644 7.91910327 19.22719294 11 22 C8.36 22 5.72 22 3 22 C2.7834375 21.0409375 2.7834375 21.0409375 2.5625 20.0625 C2.18992819 18.02454854 2.18992819 18.02454854 1 17 C0.67 17.99 0.34 18.98 0 20 C0.66 20 1.32 20 2 20 C2 20.66 2 21.32 2 22 C-0.31 22 -2.62 22 -5 22 C-4.67 21.34 -4.34 20.68 -4 20 C-3.76725791 17.12089412 -3.58027243 14.25853505 -3.4375 11.375 C-3.39431641 10.57320312 -3.35113281 9.77140625 -3.30664062 8.9453125 C-3.20048543 6.9637489 -3.09973145 4.98189729 -3 3 C-3.66 3 -4.32 3 -5 3 C-5 2.34 -5 1.68 -5 1 C-2 0 -2 0 0 0 Z " fill="#000000" transform="translate(162,137)"/>
<path d="M0 0 C3.4375 1 3.4375 1 5.375 2.6875 C6.78339562 5.75283164 6.91522045 7.65595685 6.4375 11 C4.8125 13.875 4.8125 13.875 2.4375 16 C-1.18529473 16.67927401 -2.81923949 16.46942769 -5.9375 14.5 C-8.22012005 10.98827684 -8.37103347 8.07600894 -7.5625 4 C-5.32424706 0.32926518 -4.31620847 0 0 0 Z M-1.5625 2 C-3.83131841 5.08559304 -4.61701946 6.42209376 -4.25 10.3125 C-4.023125 11.199375 -3.79625 12.08625 -3.5625 13 C-1.67070797 13.6814823 -1.67070797 13.6814823 0.4375 14 C2.62081689 12.23863645 2.62081689 12.23863645 2.6328125 10.0546875 C2.60960937 9.33539063 2.58640625 8.61609375 2.5625 7.875 C2.52125 6.59625 2.48 5.3175 2.4375 4 C1.1175 3.34 -0.2025 2.68 -1.5625 2 Z " fill="#000000" transform="translate(136.5625,144)"/>
<path d="M0 0 C1.8125 1.75 1.8125 1.75 3 4 C3 5.32 3 6.64 3 8 C0.03 8 -2.94 8 -6 8 C-5.01 9.65 -4.02 11.3 -3 13 C-1.35 12.67 0.3 12.34 2 12 C2 12.99 2 13.98 2 15 C-4.25 16.44230769 -4.25 16.44230769 -7.4375 14.5625 C-9.60581932 11.00645632 -9.82443434 8.06387835 -9 4 C-6.52779519 0.33747436 -4.4012424 -0.90281895 0 0 Z M-4 2 C-4.33 3.32 -4.66 4.64 -5 6 C-3.68 6 -2.36 6 -1 6 C-1.33 4.68 -1.66 3.36 -2 2 C-2.66 2 -3.32 2 -4 2 Z " fill="#000000" transform="translate(33,144)"/>
<path d="M0 0 C2.4375 0.5 2.4375 0.5 4.25 1.6875 C5.80428206 4.05982525 5.66287188 5.72041345 5.4375 8.5 C2.7975 8.5 0.1575 8.5 -2.5625 8.5 C-1.9025 10.15 -1.2425 11.8 -0.5625 13.5 C1.0875 13.17 2.7375 12.84 4.4375 12.5 C4.4375 13.49 4.4375 14.48 4.4375 15.5 C-1.83522727 16.94755245 -1.83522727 16.94755245 -5 15 C-7.14799533 11.56320747 -7.12232357 9.48874294 -6.5625 5.5 C-4.68314825 2.22853584 -3.75735518 0.73314247 0 0 Z M-1.5625 2.5 C-1.8925 3.82 -2.2225 5.14 -2.5625 6.5 C-0.9125 6.5 0.7375 6.5 2.4375 6.5 C2.1075 5.18 1.7775 3.86 1.4375 2.5 C0.4475 2.5 -0.5425 2.5 -1.5625 2.5 Z " fill="#000000" transform="translate(178.5625,143.5)"/>
<path d="M0 0 C0.66 1.98 1.32 3.96 2 6 C1 7 1 7 -0.84765625 7.09765625 C-2.8984375 7.06510417 -4.94921875 7.03255208 -7 7 C-6.34 8.65 -5.68 10.3 -5 12 C-3.02 11.67 -1.04 11.34 1 11 C0.34 12.32 -0.32 13.64 -1 15 C-6.38732394 15.35915493 -6.38732394 15.35915493 -8.8125 13.9375 C-10.64085164 10.95439996 -10.88025472 8.47261317 -11 5 C-8.24638259 -1.03173337 -6.23214467 -1.21933265 0 0 Z M-5 1 C-5.66 2.32 -6.32 3.64 -7 5 C-5.35 5 -3.7 5 -2 5 C-2.33 3.68 -2.66 2.36 -3 1 C-3.66 1 -4.32 1 -5 1 Z " fill="#000000" transform="translate(101,145)"/>
<path d="M0 0 C3.625 0.375 3.625 0.375 7 1 C7 2.32 7 3.64 7 5 C6.34 5 5.68 5 5 5 C4.67 4.34 4.34 3.68 4 3 C3.01 2.67 2.02 2.34 1 2 C2.33332095 5.99996286 4.4957827 6.83782337 8 9 C7.67 10.98 7.34 12.96 7 15 C-0.75 16.125 -0.75 16.125 -3 15 C-3 13.68 -3 12.36 -3 11 C-2.01 11 -1.02 11 0 11 C0 11.99 0 12.98 0 14 C1.32 13.67 2.64 13.34 4 13 C4 12.34 4 11.68 4 11 C3.01 10.401875 2.02 9.80375 1 9.1875 C-2 7 -2 7 -2.5 4.375 C-2 2 -2 2 0 0 Z " fill="#000000" transform="translate(40,144)"/>
<path d="M0 0 C1.3303125 0.4021875 1.3303125 0.4021875 2.6875 0.8125 C3.0175 2.1325 3.3475 3.4525 3.6875 4.8125 C2.3675 4.4825 1.0475 4.1525 -0.3125 3.8125 C-0.3125 3.1525 -0.3125 2.4925 -0.3125 1.8125 C-1.95820159 2.86880262 -1.95820159 2.86880262 -3.3125 4.8125 C-3.5628577 8.43785976 -3.5628577 8.43785976 -3.3125 11.8125 C-0.17900268 12.85699911 0.67718256 12.74673645 3.6875 11.8125 C3.3575 12.8025 3.0275 13.7925 2.6875 14.8125 C-0.5625 15.625 -0.5625 15.625 -4.3125 15.8125 C-7.27680947 13.30423814 -8.16163525 11.61711201 -8.875 7.8125 C-7.90539726 2.64128539 -5.3975485 -0.30552161 0 0 Z " fill="#000000" transform="translate(152.3125,144.1875)"/>
<path d="M0 0 C0.33 1.32 0.66 2.64 1 4 C2.32 4 3.64 4 5 4 C5 4.66 5 5.32 5 6 C4.01 6.33 3.02 6.66 2 7 C2 9.64 2 12.28 2 15 C2.99 15.33 3.98 15.66 5 16 C4.67 16.99 4.34 17.98 4 19 C-0.875 18.125 -0.875 18.125 -2 17 C-2.07226502 15.14712498 -2.0838122 13.29166122 -2.0625 11.4375 C-2.05347656 10.42558594 -2.04445312 9.41367188 -2.03515625 8.37109375 C-2.02355469 7.58863281 -2.01195312 6.80617187 -2 6 C-2.66 6 -3.32 6 -4 6 C-4 4 -4 4 -2 1.875 C-1.34 1.25625 -0.68 0.6375 0 0 Z " fill="#000000" transform="translate(189,141)"/>
</svg>
